<svg xmlns="http://www.w3.org/2000/svg" viewBox="0 0 193.93 23.86"><g data-name="Layer 1" fill="#231f20"><path d="M1.44.8v21.57h12.54a.72.72 0 0 1 0 1.44H.72a.71.71 0 0 1-.7-.7V.8a.72.72 0 0 1 1.42 0zM18.72 15.07a9.15 9.15 0 0 0 .35 3.49c2.37 6 12.45 4.64 12.67-2 .16-5.25 0-10.5 0-15.71a.72.72 0 0 1 1.44 0v10.79c0 3.2.51 6.82-1.7 9.44-3.62 4.22-11.2 3.52-13.57-1.66a9.07 9.07 0 0 1-.64-4V.9a.72.72 0 0 1 1.44 0v14.17zM37.72 23.17V.9a.705.705 0 0 1 1.41 0v22.27a.705.705 0 0 1-1.41 0zM59.93 23.84H44.32a.73.73 0 0 1-.6-1.09c.67-.9 1.31-1.82 2-2.75 4.23-6.11 8.52-12.22 12.84-18.36H44.8a.72.72 0 0 1 0-1.44h15.13a.74.74 0 0 1 .61 1.09c-.64.9-1.31 1.82-2 2.75-4.24 6.14-8.56 12.25-12.82 18.36h14.21a.72.72 0 0 1 0 1.44zM80.16 23.01c.32.86-1.06 1.22-1.38.38-.7-2-1.38-3.9-2.08-5.82H66.11c-.7 1.92-1.41 3.87-2.14 5.79-.29.86-1.66.48-1.38-.38 2.75-7.46 5.47-14.94 8.19-22.4a.72.72 0 0 1 1.38 0c2.65 7.45 5.34 14.94 8 22.43zm-4-6.88c-1.57-4.42-3.14-8.83-4.74-13.28-1.6 4.45-3.23 8.86-4.83 13.28zM98.85 23.07c0-7.42-.1-14.81-.1-22.24a.71.71 0 0 1 .7-.7h4.83c2 0 3.87.06 5.54 1.25a5.51 5.51 0 0 1 2.08 6.46 5.73 5.73 0 0 1-2.5 2.85 6.94 6.94 0 0 1 4 2.78 6.39 6.39 0 0 1-1.06 8.38c-2 1.79-4.42 2-6.94 2h-5.82a.56.56 0 0 1-.48-.19.67.67 0 0 1-.25-.59zm1.34-21.53c0 6.94.1 13.89.1 20.83H104a17.64 17.64 0 0 0 5-.29c3.14-1 5.18-4.42 3.46-7.46-1.38-2.46-4-3-6.62-3a.72.72 0 0 1 0-1.44c2.5-.06 5.09-1.76 5-4.51-.1-2.59-2.59-4.1-5-4.16-1.87-.04-3.76.03-5.65.03zM132.12 16.83c.06 2.11 0 4.19 0 6.3a.72.72 0 0 1-1.44 0v-5.5a4.8 4.8 0 0 0-.74-3c-1.18-1.66-3.39-2.14-5.31-2.18a.1.1 0 0 0-.06 0 .74.74 0 0 1-.74-.7.71.71 0 0 1 .7-.7h.29c3.33 0 6.14-1.7 5.86-5.34a4.72 4.72 0 0 0-4-4.1 16.45 16.45 0 0 0-2.82-.1h-5.34v21.7a.72.72 0 0 1-1.44 0c0-7.49-.1-14.94-.1-22.4a.74.74 0 0 1 .7-.74h6.56c2.4 0 4.7.29 6.4 2.21a6.4 6.4 0 0 1 .42 7.46 5.73 5.73 0 0 1-2.69 2.11 5.59 5.59 0 0 1 3.75 4.98zM134.72 23.14V.9a.71.71 0 0 1 .7-.7h14.21a.705.705 0 0 1 0 1.41h-13.44v6.91h12.06a.72.72 0 0 1 0 1.44h-12.06V22.4h13.47a.72.72 0 0 1 0 1.44h-14.21a.71.71 0 0 1-.73-.7zM154.81 23.17V.9a.705.705 0 0 1 1.41 0v22.27a.705.705 0 0 1-1.41 0zM160.72 23.14V.9a.71.71 0 0 1 .7-.7h14.21a.705.705 0 0 1 0 1.41h-13.49v6.91h12.06a.72.72 0 0 1 0 1.44h-12.06V22.4h13.47a.72.72 0 0 1 0 1.44H161.4a.71.71 0 0 1-.68-.7zM193.88 16.83c.06 2.11 0 4.19 0 6.3a.72.72 0 0 1-1.44 0v-5.5a4.8 4.8 0 0 0-.74-3c-1.18-1.66-3.39-2.14-5.31-2.18a.1.1 0 0 0-.06 0 .74.74 0 0 1-.74-.7.71.71 0 0 1 .7-.7h.29c3.33 0 6.14-1.7 5.86-5.34a4.72 4.72 0 0 0-4-4.1 16.45 16.45 0 0 0-2.82-.1h-5.34v21.7a.72.72 0 0 1-1.44 0c0-7.49-.1-14.94-.1-22.4a.74.74 0 0 1 .7-.74H186c2.4 0 4.7.29 6.4 2.21a6.4 6.4 0 0 1 .52 7.36 5.73 5.73 0 0 1-2.69 2.11 5.59 5.59 0 0 1 3.65 5.08z"/></g></svg>
